<svg width="1253" height="689" viewBox="0 0 1253 689" fill="none" xmlns="http://www.w3.org/2000/svg">
<path d="M35.5384 70.0224C35.5384 103.48 58.9289 116.359 81.5051 128.721C100.01 138.862 117.479 148.484 117.479 168.84C117.479 195.635 93.5704 207.627 69.8099 207.627C48.788 207.627 29.0986 199.706 12.0738 192.082C11.0376 195.487 1.78502 225.466 0.822754 228.574C24.4353 236.865 46.7154 241.158 67.0711 241.158C96.2352 241.158 164.112 233.682 164.112 164.102C164.112 127.832 138.353 112.954 115.703 99.7787C98.4558 89.7859 82.0972 80.3113 82.0972 62.8424C82.0972 42.8569 103.267 33.9004 124.289 33.9004C140.203 33.9004 157.746 38.2676 172.994 45.5216C173.957 42.2647 182.395 13.3968 183.283 10.2879C166.259 3.7741 146.125 0.369153 123.253 0.369153C82.7635 0.369153 35.5384 18.5782 35.5384 69.9484V70.0224Z" fill="#131313"/>
<path d="M35.5384 69.6533C35.5384 103.111 58.9289 115.99 81.5051 128.352C100.01 138.492 117.479 148.115 117.479 168.471C117.479 195.266 93.5704 207.257 69.8099 207.257C48.788 207.257 29.0986 199.337 12.0738 191.713C11.0376 195.118 1.78502 225.096 0.822754 228.205C24.4353 236.496 46.7154 240.789 67.0711 240.789C96.2352 240.789 164.112 233.313 164.112 163.733C164.112 127.463 138.353 112.585 115.703 99.4095C98.4558 89.4168 82.0972 79.9422 82.0972 62.4733C82.0972 42.4878 103.267 33.5313 124.289 33.5313C140.203 33.5313 157.746 37.8985 172.994 45.1525C173.957 41.8956 182.395 13.0276 183.283 9.91875C166.259 3.40494 146.125 0 123.253 0C82.7635 0 35.5384 18.2091 35.5384 69.5793V69.6533Z" fill="#131313"/>
<path d="M210.363 50.1102H248.113L232.199 124.871H308.218L324.132 50.1102H361.883L322.504 235.087H284.753L302 153.961H225.981L208.734 235.087H170.984L210.363 50.1102Z" fill="#131313"/>
<path d="M394.09 50.1102H504.899L499.274 79.2743H425.623L415.926 124.871H481.731L475.809 154.035H409.783L398.754 205.997H473.144L466.705 235.161H354.563L394.238 50.1842L394.09 50.1102Z" fill="#131313"/>
<path d="M537.312 50.1105H581.799C616.588 50.1105 656.782 49.5923 656.782 93.8566C656.782 125.611 632.503 142.636 601.784 143.154V143.672C611.999 144.191 618.513 150.556 620.956 160.623L639.017 235.088H599.416L590.237 191.638C585.944 172.022 586.98 158.254 566.477 158.254H552.191L535.758 235.088H498.008L537.387 50.1105H537.312ZM558.926 129.09H572.694C592.902 129.09 617.477 123.021 617.477 98.5939C617.477 79.2005 600.452 79.2005 585.13 79.2005H569.511L559 129.016L558.926 129.09Z" fill="#131313"/>
<path d="M678.477 50.1102H716.227L721.927 191.859H722.445L784.992 50.1102H835.696L836.511 191.859H837.029L903.647 50.1102H942.73L852.943 235.087H805.792L803.942 87.1945H803.423L737.101 235.087H690.468L678.625 50.1102H678.477Z" fill="#131313"/>
<path d="M963.454 50.1102H1002.83L963.232 235.087H923.853L963.454 50.1102Z" fill="#131313"/>
<path d="M1037.63 50.1102H1085.37L1125.56 190.527H1126.08L1156.8 50.1102H1192.41L1151.69 235.087H1103.21L1063.83 93.3382H1063.24L1033.34 235.087H997.213L1037.63 50.1102Z" fill="#131313"/>
<path d="M267.219 293.494C266.479 295.27 188.387 473.808 188.387 473.808L184.908 473.216C184.908 473.216 183.946 296.381 183.946 293.494H126.136C125.395 295.344 52.041 473.734 52.041 473.734L48.5621 473.216C48.5621 473.216 41.9743 296.307 41.9003 293.494H0.00463867C0.2267 296.603 13.7725 524.142 13.9205 526.88H67.0672C67.8074 525.104 145.603 338.868 145.603 338.868L149.082 339.387C149.082 339.387 151.303 523.994 151.303 526.88H205.041C205.782 525.178 308.67 297.565 310.521 293.494H267.293H267.219Z" fill="#131313"/>
<path d="M310.216 340.572H346.856L309.92 525.549H273.279L310.216 340.572Z" fill="#131313"/>
<path d="M379.515 340.572H414.675L383.29 496.385H452.055L446.06 525.549H342.357L379.515 340.572Z" fill="#131313"/>
<path d="M504.981 340.572H540.141L508.757 496.385H577.521L571.526 525.549H467.823L504.981 340.572Z" fill="#131313"/>
<path d="M628.813 340.572H665.453L628.591 525.549H591.951L628.813 340.572Z" fill="#131313"/>
<path d="M753.1 340.572H792.035L823.938 525.549H788.778L782.782 483.135H708.244L685.889 525.549H646.955L753.174 340.572H753.1ZM723.714 453.971H777.971L766.942 373.437H765.906L723.714 453.971Z" fill="#131313"/>
<path d="M879.958 340.572H937.916L949.685 473.883H950.203L1019.26 340.572H1077.74L1040.36 525.549H1003.2L1036.36 372.401H1035.84L956.495 525.549H922.89L908.826 372.401H908.308L876.183 525.549H842.799L879.958 340.572Z" fill="#131313"/>
<path d="M1194.33 376.107C1184.04 370.555 1170.72 366.558 1157.91 366.558C1145.11 366.558 1128.53 371.888 1128.53 387.728C1128.53 417.41 1188.26 415.56 1188.26 467.004C1188.26 512.304 1154.66 528.737 1116.24 528.737C1099.44 528.737 1082.12 524.518 1066.27 518.448L1075.31 486.915C1088.85 493.503 1103.21 499.647 1118.24 499.647C1135.04 499.647 1151.62 490.616 1151.62 470.779C1151.62 437.396 1091.89 442.725 1091.89 393.354C1091.89 354.419 1123.49 337.468 1157.17 337.468C1172.49 337.468 1188.33 339.615 1202.62 345.684L1194.33 376.181V376.107Z" fill="#131313"/>
<path d="M1226.67 476.991C1241.03 476.991 1252.8 488.686 1252.8 503.12C1252.8 517.554 1241.11 529.25 1226.67 529.25C1212.24 529.25 1200.54 517.554 1200.54 503.12C1200.54 488.686 1212.24 476.991 1226.67 476.991ZM1226.67 523.402C1237.04 523.402 1245.25 515.112 1245.25 503.046C1245.25 490.981 1236.96 482.691 1226.67 482.691C1216.39 482.691 1208.09 490.981 1208.09 503.046C1208.09 515.112 1216.24 523.402 1226.67 523.402ZM1216.24 488.464H1227.12C1234.52 488.464 1238.74 490.611 1238.74 497.125C1238.74 502.38 1235.56 504.527 1231.04 504.897L1238.74 517.48H1232.37L1225.42 505.193H1222.45V517.48H1216.24V488.464ZM1227.49 500.382C1230.45 500.382 1232.52 499.863 1232.52 496.533C1232.52 493.572 1229.34 493.202 1226.9 493.202H1222.45V500.382H1227.49Z" fill="#131313"/>
<g clip-path="url(#clip0_313_504)">
<path d="M12.0533 605.875C16.1691 604.809 22.5633 604.258 28.7737 604.258C34.6166 604.258 41.1945 605.214 45.8615 608.558C50.2713 611.424 52.8437 616.018 52.8437 622.228C52.8437 630.239 49.1321 636.45 44.1344 640.271C38.8794 644.387 31.3461 646.298 23.482 646.298C21.2036 646.298 19.2927 646.004 17.8595 645.93L13.4498 669.045H0L12.0533 605.875ZM19.9542 634.649C21.4976 634.943 22.9308 635.127 25.3194 635.127C33.5509 635.127 38.9896 629.872 38.9896 623.367C38.9896 617.267 34.5799 615.246 29.2514 615.246C26.6791 615.246 24.7682 615.43 23.629 615.613L19.9909 634.612L19.9542 634.649Z" fill="#131313"/>
<path d="M52.4456 669.045L57.8108 641.227C59.0602 634.171 59.7217 626.307 60.1994 622.302H72.0323C71.8485 625.462 71.5545 628.622 71.187 631.966H71.5545C74.8251 625.646 79.9698 621.273 86.364 621.273C87.3194 621.273 88.1646 621.346 88.9363 621.346L86.2537 634.833C85.6658 634.759 84.9308 634.759 84.1591 634.759C75.4498 634.759 71.2605 642.476 69.5334 651.663L66.2996 669.045H52.4456Z" fill="#131313"/>
<path d="M109.03 670.11C97.0867 670.11 89.1492 662.356 89.1492 650.817C89.1492 634.685 100.431 621.309 117.041 621.309C129.645 621.309 136.922 629.908 136.922 640.601C136.922 657.616 125.162 670.11 109.103 670.11H108.993H109.03ZM110.83 659.6C118.29 659.6 122.59 648.612 122.59 640.675C122.59 636.265 120.679 631.782 115.24 631.782C107.303 631.782 103.297 643.247 103.297 650.523C103.297 655.962 106.053 659.6 110.757 659.6H110.867H110.83Z" fill="#131313"/>
<path d="M167.51 609.696L165.121 622.301H175.153L173.059 632.811H163.137L159.976 648.576C159.609 650.487 159.205 652.875 159.205 654.492C159.205 656.771 160.16 658.424 163.21 658.424C164.349 658.424 165.783 658.424 166.922 658.241L165.378 669.044C163.578 669.706 160.123 670.11 157.257 670.11C148.952 670.11 145.02 665.884 145.02 659.968C145.02 657.469 145.314 654.896 146.086 651.369L149.613 632.848H143.697L145.608 622.338H151.635L153.362 613.555L167.51 609.733V609.696Z" fill="#131313"/>
<path d="M212.954 666.363C207.516 669.119 200.717 670.074 195.573 670.074C182.196 670.074 175.324 662.541 175.324 650.304C175.324 636.082 185.651 621.273 202.555 621.273C211.999 621.273 218.797 626.638 218.797 635.31C218.797 647.143 207.222 651.443 188.517 650.965C188.517 652.288 188.995 654.419 189.95 655.742C191.751 658.131 194.911 659.38 198.917 659.38C203.988 659.38 208.287 658.241 211.999 656.404L212.954 666.326V666.363ZM205.899 635.237C205.899 632.959 203.988 631.305 200.828 631.305C194.433 631.305 190.795 636.67 189.84 640.97C200.534 641.08 205.899 639.647 205.899 635.347V635.237Z" fill="#131313"/>
<path d="M256.075 667.612C253.098 669.045 248.321 670.111 242.809 670.111C231.233 670.111 223.112 663.055 223.112 650.892C223.112 634.282 235.827 621.273 253.576 621.273C257.582 621.273 261.036 622.044 263.131 622.89L259.676 633.4C258.059 632.738 256.149 632.26 253.356 632.26C243.617 632.26 237.481 640.565 237.481 649.348C237.481 655.853 241.596 659.086 246.668 659.086C250.673 659.086 253.539 658.131 255.928 657.176L256.038 667.575L256.075 667.612Z" fill="#131313"/>
<path d="M290.819 609.696L288.43 622.301H298.462L296.368 632.811H286.446L283.285 648.576C282.918 650.487 282.513 652.875 282.513 654.492C282.513 656.771 283.469 658.424 286.519 658.424C287.658 658.424 289.091 658.424 290.231 658.241L288.687 669.044C286.887 669.706 283.432 670.11 280.566 670.11C272.261 670.11 268.329 665.884 268.329 659.968C268.329 657.469 268.623 654.896 269.394 651.369L272.922 632.848H267.006L268.917 622.338H274.943L276.671 613.555L290.819 609.733V609.696Z" fill="#131313"/>
<path d="M297.702 669.045L306.595 622.338H320.265L311.482 669.045H297.738H297.702ZM315.12 616.201C311.115 616.201 308.138 613.335 308.138 609.036C308.138 604.075 312.07 600.73 316.553 600.73C321.037 600.73 323.903 603.487 323.903 607.896C323.903 613.151 319.897 616.201 315.194 616.201H315.12Z" fill="#131313"/>
<path d="M340.334 622.338L342.539 642.77C343.017 648.503 343.494 652.031 343.788 655.485H344.082C345.332 652.141 346.765 648.613 349.337 642.88L358.708 622.338H374.105L348.125 669.045H334.087L326.26 622.338H340.408H340.334Z" fill="#131313"/>
<path d="M410.006 666.363C404.567 669.119 397.769 670.074 392.624 670.074C379.248 670.074 372.376 662.541 372.376 650.304C372.376 636.082 382.702 621.273 399.606 621.273C409.051 621.273 415.849 626.638 415.849 635.311C415.849 647.143 404.273 651.443 385.569 650.965C385.569 652.288 386.046 654.419 387.002 655.742C388.803 658.131 391.963 659.38 395.968 659.38C401.04 659.38 405.339 658.241 409.051 656.404L410.006 666.326V666.363ZM402.914 635.237C402.914 632.959 401.003 631.305 397.843 631.305C391.448 631.305 387.81 636.67 386.855 640.97C397.549 641.08 402.914 639.647 402.914 635.347V635.237Z" fill="#131313"/>
<path d="M477.147 669.045C475.787 667.612 474.868 666.179 473.692 664.635C469.577 667.685 464.138 670.074 456.311 670.074C444.367 670.074 436.43 663.496 436.43 653.06C436.43 643.211 443.706 637.001 452.011 633.105L452.121 632.922C450.1 629.578 448.594 625.939 448.594 622.044C448.483 611.644 456.899 603.597 468.768 603.597C478.433 603.597 485.121 609.329 485.121 617.818C485.121 625.352 479.499 630.827 469.172 635.678V635.972C471.745 639.977 475.199 644.754 477.771 648.282C481.887 643.615 484.643 637.662 486.554 631.856H499.269C495.851 641.778 491.331 650.12 484.092 656.992C486.591 660.63 489.825 664.819 493.463 669.045H477.22H477.147ZM460.353 659.784C463.697 659.784 466.196 658.425 468.18 656.734C464.946 652.545 460.426 646.408 456.825 640.602C453.959 642.697 450.504 645.967 450.504 650.708C450.504 655.448 453.848 659.784 460.243 659.784H460.353ZM467.592 612.49C463.844 612.49 460.978 616.018 460.978 620.611C460.978 623.588 462.043 626.233 463.844 628.549C468.805 626.344 472.921 622.816 472.921 618.039C472.921 615.062 471.304 612.49 467.666 612.49H467.592Z" fill="#131313"/>
<path d="M571.904 669.046L575.799 642.477C576.865 635.495 578.298 626.638 580.099 617.341H579.805C576.277 625.646 572.271 634.539 568.707 641.595L555.514 667.98H544.821L542.542 641.889C541.954 634.796 541.477 625.94 541.109 617.341H540.925C539.125 625.83 537.214 635.568 535.56 642.477L529.166 669.046H516.562L532.694 604.663H551.141L553.163 629.211C553.53 635.237 554.228 642.477 554.302 649.643H554.669C557.168 642.477 560.586 634.943 563.378 629.1L575.322 604.626H593.953L585.244 669.009H571.867L571.904 669.046Z" fill="#131313"/>
<path d="M626.969 669.045C627.079 666.363 627.336 663.129 627.557 659.785H627.373C622.963 667.538 616.974 670.111 611.498 670.111C603.083 670.111 597.35 663.606 597.35 653.868C597.35 638.103 607.86 621.273 630.791 621.273C636.45 621.273 642.366 622.338 646.188 623.551L641.521 648.025C640.382 654.052 639.427 663.239 639.61 669.045H627.006H626.969ZM630.681 632.077C629.615 631.893 628.476 631.709 627.043 631.709C618.149 631.709 611.645 642.587 611.645 651.296C611.645 655.889 613.446 659.05 617.268 659.05C621.383 659.05 626.638 654.383 628.733 642.917L630.644 632.113L630.681 632.077Z" fill="#131313"/>
<path d="M648.948 669.045L654.313 641.227C655.562 634.171 656.224 626.307 656.702 622.302H668.571C668.387 625.462 668.093 628.622 667.726 631.966H668.093C671.327 625.646 676.509 621.273 682.903 621.273C683.858 621.273 684.704 621.346 685.475 621.346L682.793 634.833C682.205 634.759 681.47 634.759 680.698 634.759C671.989 634.759 667.8 642.476 666.072 651.663L662.839 669.045H648.985H648.948Z" fill="#131313"/>
<path d="M684.397 669.045L693.29 622.338H706.96L698.177 669.045H684.434H684.397ZM701.779 616.201C697.773 616.201 694.797 613.335 694.797 609.036C694.797 604.075 698.729 600.73 703.212 600.73C707.695 600.73 710.562 603.487 710.562 607.896C710.562 613.151 706.556 616.201 701.852 616.201H701.779Z" fill="#131313"/>
<path d="M709.694 669.044L715.611 637.514C716.75 631.598 717.522 626.527 718.11 622.337H730.237L729.355 630.091H729.538C733.948 624.065 739.754 621.309 745.891 621.309C753.535 621.309 757.944 625.976 757.944 634.097C757.944 636.191 757.54 639.646 757.173 641.924L752.028 669.044H738.248L743.135 643.137C743.429 641.52 743.613 639.683 743.613 637.992C743.613 634.648 742.474 632.37 738.946 632.37C734.463 632.37 729.281 637.992 727.297 648.318L723.475 669.044H709.731H709.694Z" fill="#131313"/>
<path d="M802.577 666.363C797.138 669.119 790.34 670.074 785.195 670.074C771.819 670.074 764.947 662.541 764.947 650.304C764.947 636.082 775.273 621.273 792.177 621.273C801.621 621.273 808.42 626.638 808.42 635.31C808.42 647.143 796.844 651.443 778.139 650.965C778.139 652.288 778.617 654.419 779.572 655.742C781.373 658.131 784.533 659.38 788.539 659.38C793.61 659.38 797.91 658.241 801.621 656.404L802.577 666.326V666.363ZM795.484 635.237C795.484 632.959 793.573 631.305 790.413 631.305C784.019 631.305 780.381 636.67 779.426 640.97C790.119 641.08 795.484 639.647 795.484 635.347V635.237Z" fill="#131313"/>
<path d="M877.778 667.317C874.324 668.86 868.591 670.073 860.874 670.073C843.786 670.073 832.394 659.747 832.394 642.733C832.394 628.107 838.898 616.825 848.637 610.358C855.325 605.764 863.152 603.559 872.229 603.559C879.211 603.559 884.466 605.176 886.377 606.242L882.555 617.413C880.754 616.458 876.455 615.319 870.906 615.319C865.357 615.319 860.102 617.046 856.17 620.279C850.805 624.763 847.277 632.112 847.277 641.116C847.277 651.442 853.12 658.314 864.365 658.314C868.958 658.314 873.442 657.542 876.602 656.219L877.741 667.317H877.778Z" fill="#131313"/>
<path d="M905.282 670.11C893.338 670.11 885.401 662.356 885.401 650.817C885.401 634.685 896.683 621.309 913.293 621.309C925.897 621.309 933.173 629.908 933.173 640.601C933.173 657.616 921.414 670.11 905.355 670.11H905.245H905.282ZM907.082 659.6C914.542 659.6 918.842 648.612 918.842 640.675C918.842 636.265 916.931 631.782 911.492 631.782C903.554 631.782 899.549 643.247 899.549 650.523C899.549 655.962 902.305 659.6 907.009 659.6H907.119H907.082Z" fill="#131313"/>
<path d="M968.242 669.045C968.352 666.363 968.609 663.129 968.83 659.785H968.646C964.236 667.538 958.246 670.111 952.771 670.111C944.356 670.111 938.623 663.606 938.623 653.868C938.623 638.103 949.133 621.273 972.064 621.273C977.723 621.273 983.639 622.338 987.461 623.551L982.794 648.025C981.655 654.052 980.7 663.239 980.883 669.045H968.279H968.242ZM971.953 632.077C970.888 631.893 969.749 631.709 968.315 631.709C959.422 631.709 952.918 642.587 952.918 651.296C952.918 655.889 954.719 659.05 958.54 659.05C962.656 659.05 967.911 654.383 970.006 642.917L971.917 632.113L971.953 632.077Z" fill="#131313"/>
<path d="M1016.67 609.696L1014.28 622.301H1024.32L1022.22 632.811H1012.3L1009.14 648.576C1008.77 650.487 1008.37 652.875 1008.37 654.492C1008.37 656.771 1009.32 658.424 1012.37 658.424C1013.51 658.424 1014.94 658.424 1016.12 658.241L1014.58 669.044C1012.78 669.706 1009.32 670.11 1006.46 670.11C998.151 670.11 994.219 665.884 994.219 659.968C994.219 657.469 994.513 654.896 995.285 651.369L998.812 632.848H992.896L994.807 622.338H1000.83L1002.56 613.555L1016.71 609.733L1016.67 609.696Z" fill="#131313"/>
<path d="M1023.54 669.045L1032.44 622.338H1046.11L1037.32 669.045H1023.58H1023.54ZM1040.96 616.202C1036.96 616.202 1033.98 613.335 1033.98 609.036C1033.98 604.075 1037.91 600.731 1042.4 600.731C1046.88 600.731 1049.74 603.487 1049.74 607.896C1049.74 613.151 1045.74 616.202 1041.04 616.202H1040.93H1040.96Z" fill="#131313"/>
<path d="M1048.87 669.044L1054.78 637.514C1055.92 631.598 1056.69 626.527 1057.28 622.337H1069.41L1068.56 630.091H1068.75C1073.16 624.065 1078.96 621.309 1085.1 621.309C1092.74 621.309 1097.15 625.976 1097.15 634.097C1097.15 636.191 1096.75 639.646 1096.38 641.924L1091.24 669.044H1077.49L1082.38 643.137C1082.67 641.52 1082.86 639.683 1082.86 637.992C1082.86 634.648 1081.72 632.37 1078.19 632.37C1073.71 632.37 1068.53 637.992 1066.54 648.318L1062.72 669.044H1048.98H1048.87Z" fill="#131313"/>
<path d="M1105.71 675.55C1108.29 677.093 1113.94 678.122 1117.95 678.122C1124.82 678.122 1129.89 675.072 1131.91 665.701L1132.69 661.696H1132.5C1128.86 666.473 1124.68 668.678 1119.13 668.678C1109.87 668.678 1104.21 661.144 1104.13 651.957C1104.02 636.56 1115.12 621.273 1135.48 621.273C1142.09 621.273 1147.79 622.522 1152.79 624.507L1145.73 663.018C1144.11 671.617 1141.43 679.261 1135.88 683.744C1130.81 687.75 1124.05 688.999 1117.84 688.999C1111.63 688.999 1105.79 687.86 1102.55 686.023L1105.79 675.513L1105.71 675.55ZM1137.83 632.628C1136.77 632.15 1134.78 631.783 1132.87 631.783C1124.56 631.783 1118.61 641.043 1118.61 649.826C1118.61 654.603 1120.71 658.057 1124.93 658.057C1129.42 658.057 1133.9 652.986 1135.44 645.159L1137.83 632.628Z" fill="#131313"/>
<path d="M1157.72 656.808C1160.4 658.131 1165.48 660.042 1169.96 660.042C1173.78 660.042 1175.8 658.131 1175.8 655.853C1175.8 653.574 1174.26 651.921 1169.96 649.826C1164.59 647.143 1160.11 643.248 1160.11 637.405C1160.11 627.667 1168.64 621.273 1180.65 621.273C1186.09 621.273 1190.39 622.412 1192.6 623.661L1189.36 633.4C1187.45 632.554 1184.11 631.378 1179.99 631.378C1176.35 631.378 1173.96 632.922 1173.96 635.494C1173.96 637.405 1175.87 639.022 1179.59 640.749C1184.73 643.322 1190.1 647.143 1190.1 653.648C1190.1 664.341 1181.02 670.184 1168.6 670.074C1162.76 669.964 1157.13 668.457 1154.38 666.436L1157.72 656.771V656.808Z" fill="#131313"/>
</g>
<defs>
<clipPath id="clip0_313_504">
<rect width="1192.58" height="88.2687" fill="white" transform="translate(0 600.731)"/>
</clipPath>
</defs>
</svg>
